<svg width="633" height="140" viewBox="0 0 633 140" fill="none" xmlns="http://www.w3.org/2000/svg">
<path d="M22.528 20.72C22.528 22.512 23.424 23.92 25.216 24.944C27.0933 25.968 29.9947 27.0773 33.92 28.272C38.6133 29.808 42.4533 31.3013 45.44 32.752C48.512 34.2027 51.1573 36.464 53.376 39.536C55.68 42.608 56.832 46.6187 56.832 51.568C56.832 67.44 46.5067 75.376 25.856 75.376C22.4427 75.376 18.2613 75.0773 13.312 74.48C8.448 73.8827 4.01067 73.1147 0 72.176C0.170667 70.384 0.512 67.7813 1.024 64.368C1.62133 60.8693 2.176 58.2667 2.688 56.56C5.67467 56.9867 10.1547 57.4987 16.128 58.096C22.1867 58.6933 26.752 58.992 29.824 58.992C31.616 58.992 32.6827 58.864 33.024 58.608C33.536 58.2667 33.92 57.712 34.176 56.944C34.5173 56.0907 34.688 55.3653 34.688 54.768C34.688 53.0613 33.8773 51.7813 32.256 50.928C30.6347 49.9893 27.8613 48.88 23.936 47.6C19.2427 46.1493 15.36 44.656 12.288 43.12C9.216 41.584 6.528 39.1947 4.224 35.952C1.92 32.7093 0.768 28.4427 0.768 23.152C0.768 19.3973 1.62133 15.728 3.328 12.144C5.03467 8.47466 6.784 5.99999 8.576 4.71999C9.94133 3.78132 12.7573 2.88532 17.024 2.03199C21.2907 1.17866 25.3013 0.751991 29.056 0.751991C38.6133 0.751991 46.4213 1.64799 52.48 3.43999C52.3947 5.14666 52.096 7.49333 51.584 10.48C51.1573 13.4667 50.688 16.1973 50.176 18.672L47.232 18.544C36.1387 17.776 29.056 17.392 25.984 17.392C24.704 17.392 23.9787 17.4347 23.808 17.52C23.4667 17.6907 23.168 18.0747 22.912 18.672C22.656 19.2693 22.528 19.952 22.528 20.72Z" fill="white"/>
<path d="M142.931 0.623993C149.843 0.623993 155.688 1.26399 160.467 2.54399C165.246 3.82399 169.043 6.29866 171.859 9.96799C174.76 13.552 176.211 18.7147 176.211 25.456C176.211 28.4427 175.742 31.5147 174.803 34.672C173.95 37.744 172.84 40.432 171.475 42.736C170.195 45.04 169.043 46.5333 168.019 47.216C166.824 48.0693 164.179 48.752 160.083 49.264C155.987 49.6907 151.166 49.904 145.619 49.904C143.656 49.904 140.627 49.8187 136.531 49.648V73.968H113.491V1.00799C122.451 0.751991 132.264 0.623993 142.931 0.623993ZM152.531 33.52C153.384 32.4107 153.811 30.192 153.811 26.864C153.811 22.512 152.872 19.44 150.995 17.648C149.203 15.856 146.046 14.96 141.523 14.96C139.987 14.96 138.323 15.088 136.531 15.344V34.8C137.384 34.8853 139.048 34.928 141.523 34.928C148.094 34.928 151.763 34.4587 152.531 33.52Z" fill="white"/>
<path d="M230.574 1.00799H253.742V27.76H273.582V1.00799H296.75V73.968H273.582V42.48H253.742V73.968H230.574V1.00799Z" fill="white"/>
<path d="M355.904 1.00799H378.944V73.968H355.904V1.00799Z" fill="white"/>
<path d="M459.357 44.528V73.968H437.981V1.00799H459.613L478.941 30.448C481.842 34.8 484.061 38.4693 485.597 41.456H485.981V1.00799H507.229V73.968H485.469L465.629 43.248L459.869 34.544H459.485L459.357 44.528Z" fill="white"/>
<path d="M577.84 36.592L560.688 1.00799H584.24L596.016 29.68L608.176 1.00799H631.088L614.192 36.592L632.24 74.096H608.688L596.016 43.12L582.96 74.096H559.28L577.84 36.592Z" fill="white"/>
<path d="M24.9249 139.376C22.2253 139.376 19.7572 138.879 17.5204 137.885C15.2837 136.852 13.3168 135.476 11.62 133.755L14.3388 130.658C15.6886 132.073 17.289 133.182 19.1401 133.985C21.0298 134.788 22.9773 135.189 24.9827 135.189C27.4894 135.189 29.437 134.635 30.8253 133.526C32.2136 132.379 32.9078 130.888 32.9078 129.052C32.9078 127.752 32.6186 126.72 32.0401 125.955C31.5002 125.191 30.7482 124.541 29.784 124.005C28.8585 123.47 27.798 122.935 26.6024 122.4L21.1648 120.048C19.9307 119.513 18.7159 118.844 17.5204 118.041C16.3635 117.238 15.3994 116.225 14.6281 115.001C13.8568 113.739 13.4711 112.191 13.4711 110.355C13.4711 108.444 13.9725 106.742 14.9751 105.251C16.0164 103.722 17.424 102.536 19.198 101.695C21.0105 100.816 23.0738 100.376 25.3876 100.376C27.7015 100.376 29.8226 100.797 31.7509 101.638C33.6791 102.479 35.2988 103.569 36.61 104.907L34.0069 108.004C32.8114 106.972 31.5002 106.15 30.0733 105.538C28.6464 104.888 27.0845 104.563 25.3876 104.563C23.2666 104.563 21.5504 105.06 20.2392 106.054C18.9666 107.048 18.3303 108.386 18.3303 110.069C18.3303 111.254 18.6388 112.229 19.2558 112.994C19.8729 113.758 20.6635 114.389 21.6276 114.886C22.6303 115.383 23.6329 115.861 24.6356 116.32L30.0154 118.614C31.5195 119.264 32.85 120.01 34.0069 120.851C35.2024 121.692 36.128 122.744 36.7836 124.005C37.4777 125.267 37.8248 126.816 37.8248 128.651C37.8248 130.639 37.3042 132.455 36.2629 134.1C35.2603 135.705 33.7755 136.986 31.8087 137.942C29.8805 138.898 27.5858 139.376 24.9249 139.376Z" fill="url(#paint0_linear_3_10)"/>
<path d="M63.6044 138.688V105.136H52.1506V101.064H79.9173V105.136H68.4635V138.688H63.6044Z" fill="url(#paint1_linear_3_10)"/>
<path d="M90.9716 138.688L103.814 101.064H109.251L122.093 138.688H117.003L110.35 117.639C109.656 115.536 109.001 113.452 108.384 111.388C107.767 109.285 107.15 107.144 106.532 104.964H106.301C105.723 107.144 105.125 109.285 104.508 111.388C103.891 113.452 103.235 115.536 102.541 117.639L95.8307 138.688H90.9716ZM97.6818 127.217V123.432H115.21V127.217H97.6818Z" fill="url(#paint2_linear_3_10)"/>
<path d="M138.983 138.688V101.064H150.842C153.426 101.064 155.72 101.408 157.726 102.097C159.731 102.747 161.293 103.855 162.411 105.423C163.568 106.952 164.147 109.017 164.147 111.617C164.147 114.141 163.568 116.225 162.411 117.869C161.293 119.513 159.731 120.755 157.726 121.597C155.72 122.4 153.426 122.801 150.842 122.801H143.784V138.688H138.983ZM143.784 118.901H150.148C153.117 118.901 155.392 118.308 156.974 117.123C158.555 115.9 159.345 114.064 159.345 111.617C159.345 109.17 158.555 107.45 156.974 106.455C155.392 105.423 153.117 104.907 150.148 104.907H143.784V118.901ZM159.808 138.688L149.916 121.482L153.676 118.958L165.246 138.688H159.808Z" fill="url(#paint3_linear_3_10)"/>
<path d="M190.563 138.688V105.136H179.11V101.064H206.876V105.136H195.423V138.688H190.563Z" fill="url(#paint4_linear_3_10)"/>
<path d="M225.279 138.688V101.064H247.146V105.079H230.081V116.894H244.485V120.966H230.081V134.616H247.724V138.688H225.279Z" fill="url(#paint5_linear_3_10)"/>
<path d="M267.354 138.688V101.064H279.213C281.797 101.064 284.091 101.408 286.097 102.097C288.102 102.747 289.664 103.855 290.782 105.423C291.939 106.952 292.518 109.017 292.518 111.617C292.518 114.141 291.939 116.225 290.782 117.869C289.664 119.513 288.102 120.755 286.097 121.597C284.091 122.4 281.797 122.801 279.213 122.801H272.156V138.688H267.354ZM272.156 118.901H278.519C281.488 118.901 283.764 118.308 285.345 117.123C286.926 115.9 287.717 114.064 287.717 111.617C287.717 109.17 286.926 107.45 285.345 106.455C283.764 105.423 281.488 104.907 278.519 104.907H272.156V118.901ZM288.179 138.688L278.287 121.482L282.047 118.958L293.617 138.688H288.179Z" fill="url(#paint6_linear_3_10)"/>
<path d="M335.008 138.688V101.064H345.826C348.68 101.064 351.167 101.427 353.288 102.154C355.409 102.842 357.068 103.989 358.263 105.595C359.459 107.201 360.056 109.38 360.056 112.133C360.056 114.772 359.459 116.951 358.263 118.672C357.106 120.354 355.467 121.635 353.346 122.514C351.264 123.355 348.834 123.776 346.057 123.776H339.81V138.688H335.008ZM339.81 119.876H345.479C348.795 119.876 351.244 119.245 352.825 117.983C354.445 116.722 355.255 114.772 355.255 112.133C355.255 109.419 354.407 107.545 352.71 106.513C351.051 105.442 348.564 104.907 345.247 104.907H339.81V119.876Z" fill="url(#paint7_linear_3_10)"/>
<path d="M379.343 138.688V101.064H391.202C393.786 101.064 396.08 101.408 398.086 102.097C400.091 102.747 401.653 103.855 402.771 105.423C403.928 106.952 404.507 109.017 404.507 111.617C404.507 114.141 403.928 116.225 402.771 117.869C401.653 119.513 400.091 120.755 398.086 121.597C396.08 122.4 393.786 122.801 391.202 122.801H384.144V138.688H379.343ZM384.144 118.901H390.508C393.477 118.901 395.752 118.308 397.334 117.123C398.915 115.9 399.705 114.064 399.705 111.617C399.705 109.17 398.915 107.45 397.334 106.455C395.752 105.423 393.477 104.907 390.508 104.907H384.144V118.901ZM400.168 138.688L390.276 121.482L394.036 118.958L405.606 138.688H400.168Z" fill="url(#paint8_linear_3_10)"/>
<path d="M437.846 139.376C434.684 139.376 431.869 138.573 429.4 136.967C426.971 135.361 425.062 133.086 423.673 130.142C422.324 127.198 421.649 123.719 421.649 119.704C421.649 115.689 422.324 112.248 423.673 109.38C425.062 106.475 426.971 104.257 429.4 102.727C431.869 101.16 434.684 100.376 437.846 100.376C441.047 100.376 443.862 101.16 446.292 102.727C448.721 104.257 450.63 106.475 452.019 109.38C453.407 112.248 454.101 115.689 454.101 119.704C454.101 123.719 453.407 127.198 452.019 130.142C450.63 133.086 448.721 135.361 446.292 136.967C443.862 138.573 441.047 139.376 437.846 139.376ZM437.846 135.132C440.121 135.132 442.088 134.501 443.746 133.239C445.443 131.977 446.755 130.2 447.68 127.905C448.606 125.573 449.068 122.839 449.068 119.704C449.068 116.607 448.606 113.93 447.68 111.675C446.755 109.419 445.443 107.679 443.746 106.455C442.088 105.194 440.121 104.563 437.846 104.563C435.609 104.563 433.642 105.194 431.946 106.455C430.249 107.679 428.938 109.419 428.012 111.675C427.086 113.93 426.624 116.607 426.624 119.704C426.624 122.839 427.086 125.573 428.012 127.905C428.938 130.2 430.249 131.977 431.946 133.239C433.642 134.501 435.609 135.132 437.846 135.132Z" fill="url(#paint9_linear_3_10)"/>
<path d="M478.283 139.376C476.007 139.376 474.021 138.879 472.324 137.885C470.628 136.852 469.258 135.323 468.217 133.297L471.457 131.175C472.228 132.551 473.154 133.564 474.233 134.214C475.352 134.826 476.605 135.132 477.993 135.132C480.076 135.132 481.619 134.52 482.621 133.297C483.662 132.035 484.183 129.951 484.183 127.045V101.064H488.984V127.504C488.984 129.683 488.618 131.672 487.885 133.469C487.191 135.266 486.053 136.7 484.472 137.77C482.891 138.841 480.828 139.376 478.283 139.376Z" fill="url(#paint10_linear_3_10)"/>
<path d="M510.765 138.688V101.064H532.631V105.079H515.566V116.894H529.97V120.966H515.566V134.616H533.21V138.688H510.765Z" fill="url(#paint11_linear_3_10)"/>
<path d="M567.244 139.376C564.081 139.376 561.228 138.611 558.682 137.082C556.176 135.514 554.209 133.277 552.782 130.372C551.355 127.466 550.641 123.967 550.641 119.876C550.641 116.855 551.046 114.141 551.856 111.732C552.705 109.323 553.9 107.277 555.443 105.595C556.985 103.875 558.759 102.575 560.765 101.695C562.809 100.816 565.045 100.376 567.475 100.376C569.75 100.376 571.775 100.835 573.549 101.752C575.362 102.67 576.808 103.76 577.888 105.022L575.284 107.947C574.282 106.876 573.125 106.054 571.814 105.48C570.541 104.869 569.114 104.563 567.533 104.563C565.18 104.563 563.098 105.194 561.285 106.455C559.511 107.679 558.123 109.438 557.12 111.732C556.118 113.988 555.616 116.664 555.616 119.761C555.616 122.935 556.098 125.669 557.063 127.963C558.027 130.257 559.415 132.035 561.228 133.297C563.04 134.52 565.161 135.132 567.591 135.132C569.365 135.132 570.946 134.807 572.334 134.157C573.761 133.469 575.053 132.475 576.21 131.175L578.755 133.985C577.251 135.705 575.574 137.044 573.723 138C571.871 138.917 569.712 139.376 567.244 139.376Z" fill="url(#paint12_linear_3_10)"/>
<path d="M604.307 138.688V105.136H592.853V101.064H620.62V105.136H609.166V138.688H604.307Z" fill="url(#paint13_linear_3_10)"/>
<defs>
<linearGradient id="paint0_linear_3_10" x1="316.175" y1="82.5296" x2="316.175" y2="153.026" gradientUnits="userSpaceOnUse">
<stop stop-color="#CED9E2"/>
<stop offset="1" stop-color="#B1BDC6"/>
</linearGradient>
<linearGradient id="paint1_linear_3_10" x1="316.175" y1="82.5296" x2="316.175" y2="153.026" gradientUnits="userSpaceOnUse">
<stop stop-color="#CED9E2"/>
<stop offset="1" stop-color="#B1BDC6"/>
</linearGradient>
<linearGradient id="paint2_linear_3_10" x1="316.175" y1="82.5296" x2="316.175" y2="153.026" gradientUnits="userSpaceOnUse">
<stop stop-color="#CED9E2"/>
<stop offset="1" stop-color="#B1BDC6"/>
</linearGradient>
<linearGradient id="paint3_linear_3_10" x1="316.175" y1="82.5296" x2="316.175" y2="153.026" gradientUnits="userSpaceOnUse">
<stop stop-color="#CED9E2"/>
<stop offset="1" stop-color="#B1BDC6"/>
</linearGradient>
<linearGradient id="paint4_linear_3_10" x1="316.175" y1="82.5296" x2="316.175" y2="153.026" gradientUnits="userSpaceOnUse">
<stop stop-color="#CED9E2"/>
<stop offset="1" stop-color="#B1BDC6"/>
</linearGradient>
<linearGradient id="paint5_linear_3_10" x1="316.175" y1="82.5296" x2="316.175" y2="153.026" gradientUnits="userSpaceOnUse">
<stop stop-color="#CED9E2"/>
<stop offset="1" stop-color="#B1BDC6"/>
</linearGradient>
<linearGradient id="paint6_linear_3_10" x1="316.175" y1="82.5296" x2="316.175" y2="153.026" gradientUnits="userSpaceOnUse">
<stop stop-color="#CED9E2"/>
<stop offset="1" stop-color="#B1BDC6"/>
</linearGradient>
<linearGradient id="paint7_linear_3_10" x1="316.175" y1="82.5296" x2="316.175" y2="153.026" gradientUnits="userSpaceOnUse">
<stop stop-color="#CED9E2"/>
<stop offset="1" stop-color="#B1BDC6"/>
</linearGradient>
<linearGradient id="paint8_linear_3_10" x1="316.175" y1="82.5296" x2="316.175" y2="153.026" gradientUnits="userSpaceOnUse">
<stop stop-color="#CED9E2"/>
<stop offset="1" stop-color="#B1BDC6"/>
</linearGradient>
<linearGradient id="paint9_linear_3_10" x1="316.175" y1="82.5296" x2="316.175" y2="153.026" gradientUnits="userSpaceOnUse">
<stop stop-color="#CED9E2"/>
<stop offset="1" stop-color="#B1BDC6"/>
</linearGradient>
<linearGradient id="paint10_linear_3_10" x1="316.175" y1="82.5296" x2="316.175" y2="153.026" gradientUnits="userSpaceOnUse">
<stop stop-color="#CED9E2"/>
<stop offset="1" stop-color="#B1BDC6"/>
</linearGradient>
<linearGradient id="paint11_linear_3_10" x1="316.175" y1="82.5296" x2="316.175" y2="153.026" gradientUnits="userSpaceOnUse">
<stop stop-color="#CED9E2"/>
<stop offset="1" stop-color="#B1BDC6"/>
</linearGradient>
<linearGradient id="paint12_linear_3_10" x1="316.175" y1="82.5296" x2="316.175" y2="153.026" gradientUnits="userSpaceOnUse">
<stop stop-color="#CED9E2"/>
<stop offset="1" stop-color="#B1BDC6"/>
</linearGradient>
<linearGradient id="paint13_linear_3_10" x1="316.175" y1="82.5296" x2="316.175" y2="153.026" gradientUnits="userSpaceOnUse">
<stop stop-color="#CED9E2"/>
<stop offset="1" stop-color="#B1BDC6"/>
</linearGradient>
</defs>
</svg>
