<svg width="230" height="230" viewBox="0 0 230 230" fill="none" xmlns="http://www.w3.org/2000/svg">
<path d="M0 0H155C196.421 0 230 33.5786 230 75V230H75C33.5786 230 0 196.421 0 155V0Z" fill="white"/>
<path d="M105.622 82.9262C105.622 86.2401 107.277 88.8439 110.588 90.7376C114.056 92.6312 119.417 94.6827 126.669 96.8919C135.34 99.7324 142.435 102.494 147.953 105.177C153.628 107.859 158.516 112.041 162.615 117.722C166.872 123.403 169 130.82 169 139.973C169 169.324 149.923 184 111.77 184C105.464 184 97.7387 183.448 88.5946 182.343C79.6081 181.238 71.4099 179.818 64 178.082C64.3153 174.768 64.9459 169.955 65.8919 163.643C66.9955 157.173 68.0203 152.36 68.9662 149.204C74.4842 149.993 82.7613 150.94 93.7973 152.045C104.991 153.149 113.426 153.702 119.101 153.702C122.412 153.702 124.383 153.465 125.014 152.991C125.959 152.36 126.669 151.334 127.142 149.914C127.773 148.336 128.088 146.995 128.088 145.89C128.088 142.734 126.59 140.367 123.595 138.789C120.599 137.053 115.475 135.002 108.223 132.635C99.5518 129.952 92.3784 127.19 86.7027 124.35C81.027 121.509 76.0608 117.091 71.8041 111.094C67.5473 105.098 65.4189 97.2076 65.4189 87.4237C65.4189 80.4803 66.9955 73.6947 70.1487 67.0669C73.3018 60.2813 76.5338 55.705 79.8446 53.3379C82.3671 51.6021 87.5698 49.9451 95.4527 48.3671C103.336 46.789 110.745 46 117.682 46C135.34 46 149.766 47.657 160.959 50.9708C160.802 54.1269 160.25 58.4666 159.304 63.9897C158.516 69.5129 157.649 74.5626 156.703 79.1389L151.264 78.9022C130.768 77.482 117.682 76.7719 112.007 76.7719C109.642 76.7719 108.302 76.8508 107.986 77.0086C107.356 77.3242 106.804 78.0343 106.331 79.1389C105.858 80.2436 105.622 81.506 105.622 82.9262Z" fill="url(#paint0_linear_11_117)"/>
<defs>
<linearGradient id="paint0_linear_11_117" x1="115" y1="1.71363e-06" x2="115" y2="220.5" gradientUnits="userSpaceOnUse">
<stop offset="0.0100687" stop-color="#4A6E8A"/>
<stop offset="1" stop-color="#1B3553"/>
</linearGradient>
</defs>
</svg>
