<svg width="445" height="300" viewBox="0 0 445 300" fill="none" xmlns="http://www.w3.org/2000/svg">
<path fill-rule="evenodd" clip-rule="evenodd" d="M240.729 149.673C240.729 188.841 273.301 220.63 313.53 220.63C335.028 220.63 354.406 211.527 367.717 197.025C351.579 221.864 323.16 238.347 290.765 238.347C261.873 238.347 236.117 225.224 219.445 204.755C217.174 207.507 214.733 210.121 212.128 212.589C203.882 220.4 194.281 226.66 183.532 231.197C172.636 235.82 160.856 238.146 148.546 238.146C135.823 238.146 123.808 235.82 112.793 231.225C101.868 226.66 92.2374 220.342 84.1681 212.474C76.0989 204.606 69.6199 195.216 64.9374 184.563C62.0413 177.962 60.0241 170.992 58.8994 163.721V238.117H18.7592V112.429L0 121.159V86.0396L58.8994 61.2296V135.874C60.0241 128.664 62.0413 121.696 64.9374 115.042C69.6199 104.274 76.0989 94.8267 84.1976 86.93C92.2669 79.0619 101.897 72.7445 112.823 68.1787C123.837 63.5555 135.882 61.2296 148.575 61.2296C160.856 61.2296 172.636 63.5555 183.562 68.1787C194.281 72.7158 203.912 78.9758 212.158 86.7864C214.75 89.2431 217.181 91.8527 219.443 94.6065C236.116 74.1336 261.872 61 290.765 61C323.16 61 351.579 77.4827 367.717 102.322C354.406 87.849 335.057 78.7462 313.53 78.7462C273.33 78.7462 240.729 110.477 240.729 149.673ZM194.959 168.539C197.609 162.681 198.935 156.307 198.935 149.673C198.935 143.04 197.58 136.694 194.929 130.836C192.19 124.806 188.539 119.522 184.003 115.1C179.498 110.678 174.049 107.088 167.865 104.446C161.828 101.862 155.319 100.57 148.516 100.57C141.713 100.57 135.205 101.862 129.168 104.446C122.983 107.117 117.564 110.678 113.029 115.1C108.523 119.522 104.842 124.806 102.133 130.836C99.4527 136.78 98.1569 142.954 98.1569 149.702C98.1569 156.364 99.4821 162.71 102.133 168.568C104.871 174.598 108.523 179.882 113.059 184.304C117.594 188.698 123.013 192.287 129.197 194.929C135.205 197.513 141.713 198.806 148.546 198.806C155.466 198.806 161.798 197.542 167.894 194.929C174.079 192.258 179.498 188.698 184.033 184.276C188.568 179.882 192.249 174.57 194.959 168.539ZM425.057 149.502L444.317 123.342L412.923 133.45L393.339 107.52L393.516 139.71L362.152 149.846L393.634 159.638L393.81 191.828L413.1 165.697L444.611 175.46L425.057 149.502Z" fill="url(#paint0_linear_207_453)"/>
<defs>
<linearGradient id="paint0_linear_207_453" x1="24" y1="238" x2="422" y2="106" gradientUnits="userSpaceOnUse">
<stop stop-color="#096C9D"/>
<stop offset="1" stop-color="#32ADAF"/>
</linearGradient>
</defs>
</svg>
