<svg width="230" height="35" viewBox="0 0 230 35" fill="none" xmlns="http://www.w3.org/2000/svg">
<g filter="url(#filter0_d_205_3115)">
<path d="M1 11C1 5.47715 5.47715 1 11 1H56V26C56 31.5228 51.5228 36 46 36H1V11Z" fill="white"/>
</g>
<path d="M8.58006 25L13.4601 13.8H15.8761L20.7241 25H17.9401L15.3481 18.936C15.2521 18.7013 15.1561 18.4667 15.0601 18.232C14.9747 17.9973 14.8894 17.7573 14.8041 17.512C14.7187 17.2667 14.6387 17.0267 14.5641 16.792C14.4894 16.5573 14.4201 16.3333 14.3561 16.12L14.9001 16.104C14.8361 16.36 14.7614 16.6053 14.6761 16.84C14.6014 17.0747 14.5214 17.3093 14.4361 17.544C14.3507 17.768 14.2601 17.9973 14.1641 18.232C14.0681 18.4667 13.9721 18.7067 13.8761 18.952L11.2841 25H8.58006ZM10.8681 22.92L11.7481 20.872H17.5081L18.1641 22.92H10.8681ZM25.1156 25V19.64L25.3076 20.616L20.1876 13.8H23.4036L27.2276 19.032L25.8356 19L29.4036 13.8H32.4596L27.6756 20.536L27.8516 19.512V25H25.1156ZM34.7411 25V13.8H37.1731L41.6531 20.312L39.9891 20.296L44.5171 13.8H46.8851V25H44.2451V21.448C44.2451 20.52 44.2664 19.672 44.3091 18.904C44.3624 18.1253 44.4477 17.3467 44.5651 16.568L44.8531 17.432L41.3171 22.28H40.2611L36.7571 17.432L37.0611 16.568C37.1784 17.3253 37.2584 18.088 37.3011 18.856C37.3544 19.6133 37.3811 20.4773 37.3811 21.448V25H34.7411Z" fill="#191D23"/>
<path d="M67.0145 25.16C66.3638 25.16 65.7558 25.08 65.1905 24.92C64.6358 24.76 64.1238 24.52 63.6545 24.2C63.1852 23.88 62.7638 23.4853 62.3905 23.016L63.2225 22.024C63.7878 22.728 64.3798 23.2347 64.9985 23.544C65.6278 23.8427 66.3212 23.992 67.0785 23.992C67.6438 23.992 68.1612 23.912 68.6305 23.752C69.0998 23.592 69.4678 23.3573 69.7345 23.048C70.0118 22.7387 70.1505 22.3813 70.1505 21.976C70.1505 21.6987 70.0865 21.464 69.9585 21.272C69.8305 21.0693 69.6545 20.8987 69.4305 20.76C69.2172 20.6213 68.9665 20.504 68.6785 20.408C68.3905 20.3013 68.0918 20.216 67.7825 20.152C67.4732 20.0773 67.1585 20.008 66.8385 19.944C66.2518 19.8267 65.7185 19.688 65.2385 19.528C64.7585 19.368 64.3425 19.1653 63.9905 18.92C63.6492 18.6747 63.3878 18.3813 63.2065 18.04C63.0252 17.6987 62.9345 17.2827 62.9345 16.792C62.9345 16.3333 63.0358 15.912 63.2385 15.528C63.4518 15.144 63.7452 14.8187 64.1185 14.552C64.4918 14.2747 64.9292 14.0613 65.4305 13.912C65.9318 13.7627 66.4705 13.688 67.0465 13.688C67.6865 13.688 68.2625 13.768 68.7745 13.928C69.2865 14.0773 69.7398 14.3013 70.1345 14.6C70.5292 14.888 70.8705 15.2453 71.1585 15.672L70.3105 16.568C70.0438 16.2053 69.7452 15.896 69.4145 15.64C69.0838 15.3733 68.7158 15.176 68.3105 15.048C67.9158 14.9093 67.4892 14.84 67.0305 14.84C66.4972 14.84 66.0172 14.92 65.5905 15.08C65.1745 15.24 64.8438 15.464 64.5985 15.752C64.3532 16.0293 64.2305 16.3547 64.2305 16.728C64.2305 17.0267 64.2998 17.288 64.4385 17.512C64.5772 17.7253 64.7798 17.9067 65.0465 18.056C65.3132 18.2053 65.6438 18.3387 66.0385 18.456C66.4438 18.5627 66.8918 18.6587 67.3825 18.744C67.9372 18.8507 68.4598 18.9787 68.9505 19.128C69.4412 19.2773 69.8732 19.464 70.2465 19.688C70.6305 19.912 70.9238 20.2 71.1265 20.552C71.3398 20.8933 71.4465 21.3093 71.4465 21.8C71.4465 22.4613 71.2598 23.048 70.8865 23.56C70.5238 24.0613 70.0118 24.456 69.3505 24.744C68.6892 25.0213 67.9105 25.16 67.0145 25.16ZM77.3253 25V15.016H73.6773V13.8H82.3493V15.016H78.5733V25H77.3253ZM83.2855 25L88.0375 13.8H89.5095L94.2295 25H92.8535L89.6215 17.352C89.5255 17.096 89.4295 16.8507 89.3335 16.616C89.2482 16.3707 89.1575 16.136 89.0615 15.912C88.9762 15.6773 88.8908 15.4427 88.8055 15.208C88.7202 14.9733 88.6348 14.7387 88.5495 14.504H88.9015C88.8055 14.7813 88.7148 15.0427 88.6295 15.288C88.5442 15.5227 88.4535 15.752 88.3575 15.976C88.2722 16.2 88.1815 16.4293 88.0855 16.664C87.9895 16.8987 87.8882 17.1547 87.7815 17.432L84.5655 25H83.2855ZM85.2695 21.976L85.7655 20.76H91.6695L92.0855 21.976H85.2695ZM97.2701 25V13.8H102.358C103.019 13.8 103.617 13.9493 104.15 14.248C104.683 14.5467 105.105 14.9573 105.414 15.48C105.723 15.992 105.878 16.5733 105.878 17.224C105.878 17.864 105.718 18.44 105.398 18.952C105.089 19.464 104.662 19.8693 104.118 20.168C103.574 20.4667 102.971 20.616 102.31 20.616H98.5181V25H97.2701ZM104.902 25L101.702 20.072L102.934 19.672L106.422 25H104.902ZM98.5181 19.4H102.31C102.758 19.4 103.147 19.3093 103.478 19.128C103.819 18.936 104.086 18.6747 104.278 18.344C104.47 18.0133 104.566 17.64 104.566 17.224C104.566 16.808 104.459 16.4347 104.246 16.104C104.043 15.7627 103.755 15.496 103.382 15.304C103.019 15.112 102.598 15.016 102.118 15.016H98.5181V19.4ZM111.888 25V15.016H108.24V13.8H116.912V15.016H113.136V25H111.888ZM119.989 25V13.8H127.669V15.016H121.237V23.784H127.637V25H119.989ZM120.613 19.848V18.632H126.773V19.848H120.613ZM131.551 25V13.8H136.639C137.301 13.8 137.898 13.9493 138.431 14.248C138.965 14.5467 139.386 14.9573 139.695 15.48C140.005 15.992 140.159 16.5733 140.159 17.224C140.159 17.864 139.999 18.44 139.679 18.952C139.37 19.464 138.943 19.8693 138.399 20.168C137.855 20.4667 137.253 20.616 136.591 20.616H132.799V25H131.551ZM139.183 25L135.983 20.072L137.215 19.672L140.703 25H139.183ZM132.799 19.4H136.591C137.039 19.4 137.429 19.3093 137.759 19.128C138.101 18.936 138.367 18.6747 138.559 18.344C138.751 18.0133 138.847 17.64 138.847 17.224C138.847 16.808 138.741 16.4347 138.527 16.104C138.325 15.7627 138.037 15.496 137.663 15.304C137.301 15.112 136.879 15.016 136.399 15.016H132.799V19.4Z" fill="#F1F3F4"/>
<path d="M144.517 25V13.8H149.957C150.618 13.8 151.215 13.9547 151.749 14.264C152.293 14.5733 152.725 14.9947 153.045 15.528C153.375 16.0613 153.541 16.6587 153.541 17.32C153.541 18.0027 153.37 18.6213 153.029 19.176C152.698 19.72 152.25 20.1573 151.685 20.488C151.13 20.808 150.511 20.968 149.829 20.968H146.597V25H144.517ZM146.597 19.048H149.637C149.946 19.048 150.234 18.9733 150.501 18.824C150.767 18.664 150.981 18.456 151.141 18.2C151.301 17.944 151.381 17.656 151.381 17.336C151.381 17.0267 151.301 16.7547 151.141 16.52C150.981 16.2747 150.767 16.0827 150.501 15.944C150.234 15.7947 149.946 15.72 149.637 15.72H146.597V19.048ZM156.876 25V13.8H162.412C163.105 13.8 163.735 13.9547 164.3 14.264C164.865 14.5733 165.308 14.9947 165.628 15.528C165.959 16.0613 166.124 16.664 166.124 17.336C166.124 17.9973 165.953 18.6 165.612 19.144C165.271 19.688 164.812 20.12 164.236 20.44C163.66 20.76 163.02 20.92 162.316 20.92H158.908V25H156.876ZM164.172 25L160.94 19.944L163.116 19.544L166.668 25.016L164.172 25ZM158.908 19.112H162.252C162.583 19.112 162.876 19.0373 163.132 18.888C163.399 18.728 163.607 18.52 163.756 18.264C163.916 17.9973 163.996 17.704 163.996 17.384C163.996 17.0533 163.911 16.76 163.74 16.504C163.569 16.248 163.335 16.0453 163.036 15.896C162.737 15.7467 162.396 15.672 162.012 15.672H158.908V19.112ZM175.204 25.16C174.318 25.16 173.502 25.016 172.756 24.728C172.02 24.44 171.374 24.0347 170.82 23.512C170.265 22.9893 169.838 22.376 169.54 21.672C169.241 20.968 169.092 20.2053 169.092 19.384C169.092 18.5627 169.241 17.8 169.54 17.096C169.838 16.392 170.265 15.7787 170.82 15.256C171.374 14.7333 172.02 14.328 172.756 14.04C173.502 13.752 174.318 13.608 175.204 13.608C176.089 13.608 176.905 13.752 177.652 14.04C178.398 14.328 179.044 14.7387 179.588 15.272C180.132 15.7947 180.553 16.408 180.852 17.112C181.161 17.8053 181.316 18.5627 181.316 19.384C181.316 20.1947 181.161 20.952 180.852 21.656C180.553 22.36 180.132 22.9787 179.588 23.512C179.044 24.0347 178.398 24.44 177.652 24.728C176.905 25.016 176.089 25.16 175.204 25.16ZM175.204 23.176C175.79 23.176 176.324 23.0853 176.804 22.904C177.294 22.712 177.716 22.4453 178.068 22.104C178.43 21.752 178.708 21.3467 178.9 20.888C179.102 20.4293 179.204 19.928 179.204 19.384C179.204 18.84 179.102 18.3387 178.9 17.88C178.708 17.4213 178.43 17.0213 178.068 16.68C177.716 16.328 177.294 16.0613 176.804 15.88C176.324 15.688 175.79 15.592 175.204 15.592C174.628 15.592 174.094 15.688 173.604 15.88C173.113 16.0613 172.686 16.328 172.324 16.68C171.972 17.0213 171.7 17.4213 171.508 17.88C171.316 18.3387 171.22 18.84 171.22 19.384C171.22 19.928 171.316 20.4293 171.508 20.888C171.7 21.3467 171.972 21.752 172.324 22.104C172.686 22.4453 173.113 22.712 173.604 22.904C174.094 23.0853 174.628 23.176 175.204 23.176ZM187.4 25.16C186.888 25.16 186.424 25.0907 186.008 24.952C185.592 24.8133 185.224 24.6373 184.904 24.424C184.584 24.2 184.312 23.96 184.088 23.704C183.874 23.4373 183.698 23.1813 183.56 22.936L184.856 21.608C185.026 21.864 185.202 22.0987 185.384 22.312C185.565 22.5147 185.746 22.6853 185.928 22.824C186.12 22.952 186.328 23.0533 186.552 23.128C186.786 23.2027 187.032 23.24 187.288 23.24C187.725 23.24 188.104 23.144 188.424 22.952C188.754 22.7493 189.005 22.4773 189.176 22.136C189.357 21.7947 189.448 21.416 189.448 21V15.72H187.096V13.8H193.384V15.72H191.496V21.208C191.496 21.752 191.4 22.264 191.208 22.744C191.016 23.2133 190.738 23.6347 190.376 24.008C190.024 24.3707 189.592 24.6533 189.08 24.856C188.578 25.0587 188.018 25.16 187.4 25.16ZM196.329 25V13.8H204.553V15.688H198.377V23.112H204.617V25H196.329ZM197.353 20.2V18.344H203.737V20.2H197.353ZM213.482 25.16C212.628 25.16 211.839 25.0213 211.114 24.744C210.388 24.4667 209.754 24.072 209.21 23.56C208.676 23.048 208.26 22.44 207.962 21.736C207.663 21.0213 207.514 20.2373 207.514 19.384C207.514 18.5627 207.668 17.8053 207.978 17.112C208.298 16.4187 208.73 15.816 209.274 15.304C209.828 14.7813 210.468 14.376 211.194 14.088C211.93 13.8 212.714 13.656 213.546 13.656C214.164 13.656 214.756 13.7413 215.322 13.912C215.898 14.0827 216.42 14.3067 216.89 14.584C217.37 14.8613 217.764 15.1707 218.074 15.512L216.794 17.08C216.484 16.7813 216.159 16.5307 215.818 16.328C215.476 16.1147 215.108 15.9493 214.714 15.832C214.33 15.7147 213.919 15.656 213.482 15.656C212.98 15.656 212.495 15.7467 212.026 15.928C211.556 16.0987 211.146 16.3493 210.794 16.68C210.442 17.0107 210.159 17.4053 209.946 17.864C209.743 18.3227 209.642 18.8347 209.642 19.4C209.642 19.9867 209.743 20.5147 209.946 20.984C210.159 21.4427 210.452 21.8373 210.826 22.168C211.199 22.488 211.631 22.7387 212.122 22.92C212.612 23.0907 213.14 23.176 213.706 23.176C214.175 23.176 214.607 23.112 215.002 22.984C215.396 22.856 215.754 22.696 216.074 22.504C216.394 22.3013 216.687 22.0827 216.954 21.848L217.962 23.512C217.684 23.7787 217.311 24.04 216.842 24.296C216.383 24.552 215.86 24.76 215.274 24.92C214.687 25.08 214.09 25.16 213.482 25.16ZM223.749 25V15.72H220.101V13.8H229.573V15.72H225.829V25H223.749Z" fill="white"/>
<defs>
<filter id="filter0_d_205_3115" x="0" y="0" width="63" height="35" filterUnits="userSpaceOnUse" color-interpolation-filters="sRGB">
<feFlood flood-opacity="0" result="BackgroundImageFix"/>
<feColorMatrix in="SourceAlpha" type="matrix" values="0 0 0 0 0 0 0 0 0 0 0 0 0 0 0 0 0 0 127 0" result="hardAlpha"/>
<feOffset dx="3" dy="3"/>
<feGaussianBlur stdDeviation="2"/>
<feComposite in2="hardAlpha" operator="out"/>
<feColorMatrix type="matrix" values="0 0 0 0 0 0 0 0 0 0 0 0 0 0 0 0 0 0 0.25 0"/>
<feBlend mode="normal" in2="BackgroundImageFix" result="effect1_dropShadow_205_3115"/>
<feBlend mode="normal" in="SourceGraphic" in2="effect1_dropShadow_205_3115" result="shape"/>
</filter>
</defs>
</svg>
