<svg width="230" height="35" viewBox="0 0 230 35" fill="none" xmlns="http://www.w3.org/2000/svg">
<path d="M0 10C0 4.47715 4.47715 0 10 0H55V25C55 30.5228 50.5228 35 45 35H0V10Z" fill="#0D0F11"/>
<path d="M7.58006 24L12.4601 12.8H14.8761L19.7241 24H16.9401L14.3481 17.936C14.2521 17.7013 14.1561 17.4667 14.0601 17.232C13.9747 16.9973 13.8894 16.7573 13.8041 16.512C13.7187 16.2667 13.6387 16.0267 13.5641 15.792C13.4894 15.5573 13.4201 15.3333 13.3561 15.12L13.9001 15.104C13.8361 15.36 13.7614 15.6053 13.6761 15.84C13.6014 16.0747 13.5214 16.3093 13.4361 16.544C13.3507 16.768 13.2601 16.9973 13.1641 17.232C13.0681 17.4667 12.9721 17.7067 12.8761 17.952L10.2841 24H7.58006ZM9.86806 21.92L10.7481 19.872H16.5081L17.1641 21.92H9.86806ZM24.1156 24V18.64L24.3076 19.616L19.1876 12.8H22.4036L26.2276 18.032L24.8356 18L28.4036 12.8H31.4596L26.6756 19.536L26.8516 18.512V24H24.1156ZM33.7411 24V12.8H36.1731L40.6531 19.312L38.9891 19.296L43.5171 12.8H45.8851V24H43.2451V20.448C43.2451 19.52 43.2664 18.672 43.3091 17.904C43.3624 17.1253 43.4477 16.3467 43.5651 15.568L43.8531 16.432L40.3171 21.28H39.2611L35.7571 16.432L36.0611 15.568C36.1784 16.3253 36.2584 17.088 36.3011 17.856C36.3544 18.6133 36.3811 19.4773 36.3811 20.448V24H33.7411Z" fill="white"/>
<path d="M66.0145 24.16C65.3638 24.16 64.7558 24.08 64.1905 23.92C63.6358 23.76 63.1238 23.52 62.6545 23.2C62.1852 22.88 61.7638 22.4853 61.3905 22.016L62.2225 21.024C62.7878 21.728 63.3798 22.2347 63.9985 22.544C64.6278 22.8427 65.3212 22.992 66.0785 22.992C66.6438 22.992 67.1612 22.912 67.6305 22.752C68.0998 22.592 68.4678 22.3573 68.7345 22.048C69.0118 21.7387 69.1505 21.3813 69.1505 20.976C69.1505 20.6987 69.0865 20.464 68.9585 20.272C68.8305 20.0693 68.6545 19.8987 68.4305 19.76C68.2172 19.6213 67.9665 19.504 67.6785 19.408C67.3905 19.3013 67.0918 19.216 66.7825 19.152C66.4732 19.0773 66.1585 19.008 65.8385 18.944C65.2518 18.8267 64.7185 18.688 64.2385 18.528C63.7585 18.368 63.3425 18.1653 62.9905 17.92C62.6492 17.6747 62.3878 17.3813 62.2065 17.04C62.0252 16.6987 61.9345 16.2827 61.9345 15.792C61.9345 15.3333 62.0358 14.912 62.2385 14.528C62.4518 14.144 62.7452 13.8187 63.1185 13.552C63.4918 13.2747 63.9292 13.0613 64.4305 12.912C64.9318 12.7627 65.4705 12.688 66.0465 12.688C66.6865 12.688 67.2625 12.768 67.7745 12.928C68.2865 13.0773 68.7398 13.3013 69.1345 13.6C69.5292 13.888 69.8705 14.2453 70.1585 14.672L69.3105 15.568C69.0438 15.2053 68.7452 14.896 68.4145 14.64C68.0838 14.3733 67.7158 14.176 67.3105 14.048C66.9158 13.9093 66.4892 13.84 66.0305 13.84C65.4972 13.84 65.0172 13.92 64.5905 14.08C64.1745 14.24 63.8438 14.464 63.5985 14.752C63.3532 15.0293 63.2305 15.3547 63.2305 15.728C63.2305 16.0267 63.2998 16.288 63.4385 16.512C63.5772 16.7253 63.7798 16.9067 64.0465 17.056C64.3132 17.2053 64.6438 17.3387 65.0385 17.456C65.4438 17.5627 65.8918 17.6587 66.3825 17.744C66.9372 17.8507 67.4598 17.9787 67.9505 18.128C68.4412 18.2773 68.8732 18.464 69.2465 18.688C69.6305 18.912 69.9238 19.2 70.1265 19.552C70.3398 19.8933 70.4465 20.3093 70.4465 20.8C70.4465 21.4613 70.2598 22.048 69.8865 22.56C69.5238 23.0613 69.0118 23.456 68.3505 23.744C67.6892 24.0213 66.9105 24.16 66.0145 24.16ZM76.3253 24V14.016H72.6773V12.8H81.3493V14.016H77.5733V24H76.3253ZM82.2855 24L87.0375 12.8H88.5095L93.2295 24H91.8535L88.6215 16.352C88.5255 16.096 88.4295 15.8507 88.3335 15.616C88.2482 15.3707 88.1575 15.136 88.0615 14.912C87.9762 14.6773 87.8908 14.4427 87.8055 14.208C87.7202 13.9733 87.6348 13.7387 87.5495 13.504H87.9015C87.8055 13.7813 87.7148 14.0427 87.6295 14.288C87.5442 14.5227 87.4535 14.752 87.3575 14.976C87.2722 15.2 87.1815 15.4293 87.0855 15.664C86.9895 15.8987 86.8882 16.1547 86.7815 16.432L83.5655 24H82.2855ZM84.2695 20.976L84.7655 19.76H90.6695L91.0855 20.976H84.2695ZM96.2701 24V12.8H101.358C102.019 12.8 102.617 12.9493 103.15 13.248C103.683 13.5467 104.105 13.9573 104.414 14.48C104.723 14.992 104.878 15.5733 104.878 16.224C104.878 16.864 104.718 17.44 104.398 17.952C104.089 18.464 103.662 18.8693 103.118 19.168C102.574 19.4667 101.971 19.616 101.31 19.616H97.5181V24H96.2701ZM103.902 24L100.702 19.072L101.934 18.672L105.422 24H103.902ZM97.5181 18.4H101.31C101.758 18.4 102.147 18.3093 102.478 18.128C102.819 17.936 103.086 17.6747 103.278 17.344C103.47 17.0133 103.566 16.64 103.566 16.224C103.566 15.808 103.459 15.4347 103.246 15.104C103.043 14.7627 102.755 14.496 102.382 14.304C102.019 14.112 101.598 14.016 101.118 14.016H97.5181V18.4ZM110.888 24V14.016H107.24V12.8H115.912V14.016H112.136V24H110.888ZM118.989 24V12.8H126.669V14.016H120.237V22.784H126.637V24H118.989ZM119.613 18.848V17.632H125.773V18.848H119.613ZM130.551 24V12.8H135.639C136.301 12.8 136.898 12.9493 137.431 13.248C137.965 13.5467 138.386 13.9573 138.695 14.48C139.005 14.992 139.159 15.5733 139.159 16.224C139.159 16.864 138.999 17.44 138.679 17.952C138.37 18.464 137.943 18.8693 137.399 19.168C136.855 19.4667 136.253 19.616 135.591 19.616H131.799V24H130.551ZM138.183 24L134.983 19.072L136.215 18.672L139.703 24H138.183ZM131.799 18.4H135.591C136.039 18.4 136.429 18.3093 136.759 18.128C137.101 17.936 137.367 17.6747 137.559 17.344C137.751 17.0133 137.847 16.64 137.847 16.224C137.847 15.808 137.741 15.4347 137.527 15.104C137.325 14.7627 137.037 14.496 136.663 14.304C136.301 14.112 135.879 14.016 135.399 14.016H131.799V18.4Z" fill="#7D7D7D"/>
<path d="M143.517 24V12.8H148.957C149.618 12.8 150.215 12.9547 150.749 13.264C151.293 13.5733 151.725 13.9947 152.045 14.528C152.375 15.0613 152.541 15.6587 152.541 16.32C152.541 17.0027 152.37 17.6213 152.029 18.176C151.698 18.72 151.25 19.1573 150.685 19.488C150.13 19.808 149.511 19.968 148.829 19.968H145.597V24H143.517ZM145.597 18.048H148.637C148.946 18.048 149.234 17.9733 149.501 17.824C149.767 17.664 149.981 17.456 150.141 17.2C150.301 16.944 150.381 16.656 150.381 16.336C150.381 16.0267 150.301 15.7547 150.141 15.52C149.981 15.2747 149.767 15.0827 149.501 14.944C149.234 14.7947 148.946 14.72 148.637 14.72H145.597V18.048ZM155.876 24V12.8H161.412C162.105 12.8 162.735 12.9547 163.3 13.264C163.865 13.5733 164.308 13.9947 164.628 14.528C164.959 15.0613 165.124 15.664 165.124 16.336C165.124 16.9973 164.953 17.6 164.612 18.144C164.271 18.688 163.812 19.12 163.236 19.44C162.66 19.76 162.02 19.92 161.316 19.92H157.908V24H155.876ZM163.172 24L159.94 18.944L162.116 18.544L165.668 24.016L163.172 24ZM157.908 18.112H161.252C161.583 18.112 161.876 18.0373 162.132 17.888C162.399 17.728 162.607 17.52 162.756 17.264C162.916 16.9973 162.996 16.704 162.996 16.384C162.996 16.0533 162.911 15.76 162.74 15.504C162.569 15.248 162.335 15.0453 162.036 14.896C161.737 14.7467 161.396 14.672 161.012 14.672H157.908V18.112ZM174.204 24.16C173.318 24.16 172.502 24.016 171.756 23.728C171.02 23.44 170.374 23.0347 169.82 22.512C169.265 21.9893 168.838 21.376 168.54 20.672C168.241 19.968 168.092 19.2053 168.092 18.384C168.092 17.5627 168.241 16.8 168.54 16.096C168.838 15.392 169.265 14.7787 169.82 14.256C170.374 13.7333 171.02 13.328 171.756 13.04C172.502 12.752 173.318 12.608 174.204 12.608C175.089 12.608 175.905 12.752 176.652 13.04C177.398 13.328 178.044 13.7387 178.588 14.272C179.132 14.7947 179.553 15.408 179.852 16.112C180.161 16.8053 180.316 17.5627 180.316 18.384C180.316 19.1947 180.161 19.952 179.852 20.656C179.553 21.36 179.132 21.9787 178.588 22.512C178.044 23.0347 177.398 23.44 176.652 23.728C175.905 24.016 175.089 24.16 174.204 24.16ZM174.204 22.176C174.79 22.176 175.324 22.0853 175.804 21.904C176.294 21.712 176.716 21.4453 177.068 21.104C177.43 20.752 177.708 20.3467 177.9 19.888C178.102 19.4293 178.204 18.928 178.204 18.384C178.204 17.84 178.102 17.3387 177.9 16.88C177.708 16.4213 177.43 16.0213 177.068 15.68C176.716 15.328 176.294 15.0613 175.804 14.88C175.324 14.688 174.79 14.592 174.204 14.592C173.628 14.592 173.094 14.688 172.604 14.88C172.113 15.0613 171.686 15.328 171.324 15.68C170.972 16.0213 170.7 16.4213 170.508 16.88C170.316 17.3387 170.22 17.84 170.22 18.384C170.22 18.928 170.316 19.4293 170.508 19.888C170.7 20.3467 170.972 20.752 171.324 21.104C171.686 21.4453 172.113 21.712 172.604 21.904C173.094 22.0853 173.628 22.176 174.204 22.176ZM186.4 24.16C185.888 24.16 185.424 24.0907 185.008 23.952C184.592 23.8133 184.224 23.6373 183.904 23.424C183.584 23.2 183.312 22.96 183.088 22.704C182.874 22.4373 182.698 22.1813 182.56 21.936L183.856 20.608C184.026 20.864 184.202 21.0987 184.384 21.312C184.565 21.5147 184.746 21.6853 184.928 21.824C185.12 21.952 185.328 22.0533 185.552 22.128C185.786 22.2027 186.032 22.24 186.288 22.24C186.725 22.24 187.104 22.144 187.424 21.952C187.754 21.7493 188.005 21.4773 188.176 21.136C188.357 20.7947 188.448 20.416 188.448 20V14.72H186.096V12.8H192.384V14.72H190.496V20.208C190.496 20.752 190.4 21.264 190.208 21.744C190.016 22.2133 189.738 22.6347 189.376 23.008C189.024 23.3707 188.592 23.6533 188.08 23.856C187.578 24.0587 187.018 24.16 186.4 24.16ZM195.329 24V12.8H203.553V14.688H197.377V22.112H203.617V24H195.329ZM196.353 19.2V17.344H202.737V19.2H196.353ZM212.482 24.16C211.628 24.16 210.839 24.0213 210.114 23.744C209.388 23.4667 208.754 23.072 208.21 22.56C207.676 22.048 207.26 21.44 206.962 20.736C206.663 20.0213 206.514 19.2373 206.514 18.384C206.514 17.5627 206.668 16.8053 206.978 16.112C207.298 15.4187 207.73 14.816 208.274 14.304C208.828 13.7813 209.468 13.376 210.194 13.088C210.93 12.8 211.714 12.656 212.546 12.656C213.164 12.656 213.756 12.7413 214.322 12.912C214.898 13.0827 215.42 13.3067 215.89 13.584C216.37 13.8613 216.764 14.1707 217.074 14.512L215.794 16.08C215.484 15.7813 215.159 15.5307 214.818 15.328C214.476 15.1147 214.108 14.9493 213.714 14.832C213.33 14.7147 212.919 14.656 212.482 14.656C211.98 14.656 211.495 14.7467 211.026 14.928C210.556 15.0987 210.146 15.3493 209.794 15.68C209.442 16.0107 209.159 16.4053 208.946 16.864C208.743 17.3227 208.642 17.8347 208.642 18.4C208.642 18.9867 208.743 19.5147 208.946 19.984C209.159 20.4427 209.452 20.8373 209.826 21.168C210.199 21.488 210.631 21.7387 211.122 21.92C211.612 22.0907 212.14 22.176 212.706 22.176C213.175 22.176 213.607 22.112 214.002 21.984C214.396 21.856 214.754 21.696 215.074 21.504C215.394 21.3013 215.687 21.0827 215.954 20.848L216.962 22.512C216.684 22.7787 216.311 23.04 215.842 23.296C215.383 23.552 214.86 23.76 214.274 23.92C213.687 24.08 213.09 24.16 212.482 24.16ZM222.749 24V14.72H219.101V12.8H228.573V14.72H224.829V24H222.749Z" fill="#191D23"/>
</svg>
