<svg width="55" height="35" viewBox="0 0 55 35" fill="none" xmlns="http://www.w3.org/2000/svg">
<path d="M0 10C0 4.47715 4.47715 0 10 0H55V25C55 30.5228 50.5228 35 45 35H0V10Z" fill="#0D0F11"/>
<path d="M7.58006 24L12.4601 12.8H14.8761L19.7241 24H16.9401L14.3481 17.936C14.2521 17.7013 14.1561 17.4667 14.0601 17.232C13.9747 16.9973 13.8894 16.7573 13.8041 16.512C13.7187 16.2667 13.6387 16.0267 13.5641 15.792C13.4894 15.5573 13.4201 15.3333 13.3561 15.12L13.9001 15.104C13.8361 15.36 13.7614 15.6053 13.6761 15.84C13.6014 16.0747 13.5214 16.3093 13.4361 16.544C13.3507 16.768 13.2601 16.9973 13.1641 17.232C13.0681 17.4667 12.9721 17.7067 12.8761 17.952L10.2841 24H7.58006ZM9.86806 21.92L10.7481 19.872H16.5081L17.1641 21.92H9.86806ZM24.1156 24V18.64L24.3076 19.616L19.1876 12.8H22.4036L26.2276 18.032L24.8356 18L28.4036 12.8H31.4596L26.6756 19.536L26.8516 18.512V24H24.1156ZM33.7411 24V12.8H36.1731L40.6531 19.312L38.9891 19.296L43.5171 12.8H45.8851V24H43.2451V20.448C43.2451 19.52 43.2664 18.672 43.3091 17.904C43.3624 17.1253 43.4477 16.3467 43.5651 15.568L43.8531 16.432L40.3171 21.28H39.2611L35.7571 16.432L36.0611 15.568C36.1784 16.3253 36.2584 17.088 36.3011 17.856C36.3544 18.6133 36.3811 19.4773 36.3811 20.448V24H33.7411Z" fill="white"/>
</svg>
