<svg xmlns="http://www.w3.org/2000/svg" width="233" height="78" viewBox="0 0 233 78" fill="none">
  <path fill-rule="evenodd" clip-rule="evenodd" d="M52.3555 0C34.3192 10.8606 22.2545 30.6262 22.2545 53.204C22.2545 60.6868 23.5798 68.6626 26.004 75.305H6.18182C2.22222 67.1353 0 57.1636 0 47.4747C0 28.4283 8.5899 11.3859 22.101 0H52.3555ZM51.6121 11.9677C55.1919 13.0101 56.9131 17.9313 55.4586 22.9737C53.9959 28.0081 49.9071 31.2566 46.3273 30.2141C42.7475 29.1717 41.0263 24.2505 42.4808 19.2081C43.9434 14.1737 48.0323 10.9252 51.6121 11.9677ZM29.1232 31.4343L52.0727 31.7656L45.697 75.305H29.4949L36.0404 40.299H25.4869L29.1313 31.4343H29.1232Z" fill="#D61738"/>
  <path d="M67.4682 39.7428V36.8898H74.8485V43.6331C74.134 44.3301 73.0948 44.938 71.7308 45.4648C70.3668 45.9916 68.9865 46.251 67.5982 46.251C65.8282 46.251 64.2774 45.8781 62.9621 45.1406C61.6468 44.3949 60.6563 43.3332 59.9905 41.9554C59.3248 40.5694 59 39.07 59 37.4491C59 35.6903 59.3735 34.118 60.1123 32.7483C60.8512 31.3785 61.9391 30.3249 63.3681 29.6036C64.4561 29.0362 65.8119 28.7607 67.4277 28.7607C69.5305 28.7607 71.1787 29.1983 72.356 30.0817C73.5414 30.9652 74.3046 32.1809 74.6456 33.737L71.2436 34.3692C71.0001 33.5344 70.5535 32.8779 69.8959 32.3997C69.2382 31.9216 68.4182 31.6784 67.4277 31.6784C65.9337 31.6784 64.7402 32.1485 63.8552 33.0968C62.9703 34.045 62.5318 35.4472 62.5318 37.3113C62.5318 39.3213 62.9784 40.8288 63.8715 41.8338C64.7646 42.8388 65.9337 43.3413 67.3871 43.3413C68.1015 43.3413 68.8241 43.1954 69.5467 42.9199C70.2612 42.6362 70.8864 42.2958 71.406 41.8986V39.7509H67.4845L67.4682 39.7428ZM78.0069 45.9673V29.0362H90.5753V31.9053H81.425V35.6579H89.9339V38.5108H81.425V43.1225H90.9V45.9754H78.0069V45.9673ZM93.896 45.9673V29.174H97.3223V43.1144H105.839V45.9673H93.9041H93.896ZM108.169 45.9673V29.0362H111.588V45.9673H108.169ZM108.299 27.0717V24H111.49V27.0717H108.299ZM114.868 45.9673V29.0362H122.077C123.888 29.0362 125.203 29.1902 126.023 29.4901C126.843 29.79 127.501 30.333 127.996 31.1111C128.492 31.8891 128.735 32.7807 128.735 33.7776C128.735 35.05 128.362 36.0956 127.615 36.9304C126.868 37.7571 125.747 38.2758 124.262 38.4946C125 38.9323 125.617 39.4023 126.096 39.9211C126.575 40.4398 127.225 41.3556 128.045 42.6686L130.115 45.9754H126.023L123.547 42.2877C122.67 40.9747 122.069 40.1399 121.745 39.7995C121.42 39.4591 121.079 39.224 120.713 39.0944C120.348 38.9647 119.78 38.908 118.992 38.908H118.302V45.9754H114.876L114.868 45.9673ZM118.294 36.1928H120.827C122.467 36.1928 123.498 36.128 123.904 35.9902C124.31 35.8524 124.627 35.6093 124.862 35.277C125.09 34.9366 125.211 34.5151 125.211 34.0045C125.211 33.4372 125.057 32.9752 124.757 32.6267C124.456 32.2782 124.026 32.0512 123.466 31.9621C123.19 31.9297 122.354 31.9053 120.965 31.9053H118.294V36.2009V36.1928ZM138.998 45.9673V29.0362H142.424V45.9673H138.998ZM139.128 27.0717V24H142.318V27.0717H139.128ZM145.68 29.0524L151.931 29.0443C153.336 29.0443 154.416 29.1497 155.155 29.3685C156.145 29.6603 157.006 30.179 157.712 30.9328C158.427 31.6784 158.963 32.5943 159.336 33.6722C159.701 34.7583 159.888 36.0875 159.888 37.676C159.888 39.07 159.718 40.2696 159.369 41.2827C158.946 42.5146 158.346 43.5115 157.55 44.2734C156.957 44.8488 156.153 45.3027 155.147 45.6269C154.392 45.87 153.385 45.9835 152.118 45.9835H145.68V29.0524ZM149.098 31.9135V43.1225H151.655C152.614 43.1225 153.304 43.0739 153.726 42.9604C154.278 42.8226 154.741 42.5876 155.106 42.2553C155.471 41.923 155.772 41.3799 156.007 40.6181C156.235 39.8643 156.356 38.8269 156.356 37.5139C156.356 36.2009 156.235 35.204 156.007 34.507C155.772 33.8019 155.447 33.2589 155.033 32.8698C154.611 32.4727 154.083 32.2133 153.442 32.0755C152.963 31.9621 152.029 31.9135 150.632 31.9135H149.098ZM178.091 45.9754H174.365L172.887 42.1256H166.107L164.711 45.9754H161.082L167.691 29.0443H171.312L178.108 45.9754H178.091ZM171.783 39.2808L169.444 32.9995L167.155 39.2808H171.783ZM179.91 45.9754V29.0443H187.12C188.93 29.0443 190.246 29.1983 191.066 29.4982C191.886 29.7981 192.543 30.3411 193.039 31.1192C193.534 31.8972 193.777 32.7888 193.777 33.7857C193.777 35.0581 193.404 36.1037 192.657 36.9385C191.91 37.7652 190.79 38.2839 189.304 38.5027C190.043 38.9404 190.66 39.4105 191.139 39.9292C191.618 40.4479 192.267 41.3637 193.087 42.6767L195.158 45.9835H191.066L188.589 42.2958C187.712 40.9828 187.112 40.148 186.787 39.8076C186.462 39.4672 186.121 39.2321 185.756 39.1025C185.39 38.9728 184.822 38.9161 184.026 38.9161H183.336V45.9835H179.91V45.9754ZM183.336 36.2009H185.869C187.509 36.2009 188.541 36.1361 188.947 35.9983C189.353 35.8605 189.669 35.6174 189.905 35.2851C190.132 34.9447 190.254 34.5232 190.254 34.0126C190.254 33.4453 190.1 32.9833 189.799 32.6348C189.499 32.2863 189.068 32.0593 188.508 31.9702C188.232 31.9378 187.396 31.9135 186.007 31.9135H183.336V36.209V36.2009ZM197.009 45.9754V29.0443H209.577V31.9135H200.427V35.666H208.944V38.5189H200.427V43.1306H209.902V45.9835H197.009V45.9754ZM211.94 40.4722L215.277 40.148C215.472 41.2665 215.878 42.0851 216.495 42.6119C217.104 43.1306 217.932 43.398 218.971 43.398C220.075 43.398 220.903 43.163 221.464 42.6929C222.024 42.2309 222.308 41.6798 222.308 41.0638C222.308 40.6586 222.186 40.3263 221.951 40.0426C221.715 39.759 221.309 39.5158 220.717 39.3132C220.319 39.1754 219.401 38.9242 217.972 38.5757C216.138 38.1218 214.847 37.5625 214.108 36.8979C213.068 35.9659 212.541 34.8312 212.541 33.4939C212.541 32.6267 212.784 31.8243 213.28 31.0705C213.767 30.3249 214.473 29.7495 215.399 29.3523C216.324 28.9633 217.437 28.7688 218.736 28.7688C220.871 28.7688 222.47 29.2307 223.542 30.1628C224.614 31.0949 225.182 32.343 225.239 33.8991L221.813 34.045C221.667 33.1778 221.35 32.5456 220.871 32.1728C220.392 31.7919 219.669 31.5974 218.703 31.5974C217.737 31.5974 216.925 31.8 216.365 32.2052C215.999 32.4646 215.821 32.8131 215.821 33.2508C215.821 33.656 215.991 33.9964 216.332 34.2801C216.763 34.6448 217.81 35.0176 219.483 35.4148C221.147 35.8119 222.381 36.2171 223.177 36.6305C223.972 37.0519 224.598 37.6274 225.052 38.3487C225.499 39.0782 225.726 39.9778 225.726 41.0476C225.726 42.0202 225.458 42.928 224.914 43.7709C224.37 44.6219 223.607 45.246 222.625 45.6593C221.634 46.0727 220.408 46.2753 218.93 46.2753C216.787 46.2753 215.139 45.7809 213.994 44.7921C212.841 43.8033 212.159 42.3606 211.932 40.4722H211.94ZM228.503 45.9754V29.0443H231.929V45.9754H228.503ZM228.633 27.0798V24.0081H231.824V27.0798H228.633ZM59.5765 54.9394H66.3559C67.6956 54.9394 68.7024 54.9961 69.36 55.1096C70.0177 55.223 70.6103 55.45 71.13 55.8066C71.6496 56.1632 72.0799 56.6333 72.429 57.225C72.7782 57.8085 72.9487 58.4731 72.9487 59.2025C72.9487 59.9968 72.7376 60.7263 72.3072 61.3827C71.8769 62.0473 71.2924 62.5417 70.5698 62.874C71.6009 63.1739 72.3966 63.6845 72.9487 64.4059C73.5089 65.1272 73.7849 65.9863 73.7849 66.9589C73.7849 67.7289 73.6063 68.4745 73.2491 69.2039C72.8918 69.9334 72.3966 70.5169 71.7795 70.9465C71.1625 71.3842 70.3911 71.6516 69.4818 71.7489C68.9135 71.8056 67.5332 71.8461 65.3492 71.8623H59.5765V54.9394ZM63.0027 57.7599V61.6745H65.2436C66.5751 61.6745 67.4114 61.6583 67.7281 61.6178C68.3126 61.5529 68.7754 61.3503 69.1083 61.018C69.4412 60.6857 69.6117 60.24 69.6117 59.6969C69.6117 59.1539 69.4737 58.7487 69.1814 58.4164C68.8891 58.0922 68.4588 57.8895 67.8904 57.8247C67.5494 57.7842 66.5751 57.768 64.9676 57.768H63.0027V57.7599ZM63.0027 64.495V69.0175H66.1692C67.4033 69.0175 68.1827 68.9851 68.5156 68.9122C69.0271 68.823 69.4412 68.5961 69.7578 68.2395C70.0745 67.8829 70.2369 67.3966 70.2369 66.8049C70.2369 66.2943 70.1151 65.8647 69.8634 65.5162C69.6117 65.1596 69.2626 64.9003 68.7917 64.7382C68.3289 64.5761 67.314 64.495 65.7551 64.495H62.9946H63.0027ZM95.1057 71.8704H91.3791L89.9014 68.0206H83.1219L81.7254 71.8704H78.0962L84.7051 54.9394H88.3263L95.122 71.8704H95.1057ZM88.7972 65.1758L86.4589 58.8946L84.1693 65.1758H88.7972ZM99.0162 66.0162L102.519 66.043C102.713 67.1615 103.119 67.9801 103.736 68.5069C104.345 69.0256 105.173 69.2931 106.213 69.2931C107.317 69.2931 108.145 69.0581 108.705 68.588C109.265 68.126 109.55 67.5749 109.55 66.9589C109.55 66.5537 109.436 66.2214 109.192 65.9377C108.957 65.654 108.551 65.4109 107.958 65.2082C107.56 65.0705 106.643 64.8192 105.214 64.4707C103.379 64.0168 102.088 63.4576 101.349 62.793C100.31 61.8609 99.7824 60.7263 99.7824 59.389C99.7824 58.5298 100.026 57.7193 100.513 56.9656C101 56.2199 101.707 55.6445 102.632 55.2474C103.558 54.8583 104.662 54.6638 105.969 54.6638C108.104 54.6638 109.704 55.1258 110.776 56.0578C111.847 56.9899 112.229 58.3839 112.286 59.9401H109.046C108.9 59.0648 108.583 58.4407 108.104 58.0598C107.625 57.6788 106.903 57.4843 105.937 57.4843C104.97 57.4843 104.159 57.6869 103.598 58.0922C103.233 58.3515 103.054 58.7 103.054 59.1377C103.054 59.5429 103.225 59.8833 103.566 60.167C103.996 60.5317 105.044 60.9046 106.716 61.3017C108.381 61.6988 109.615 62.1041 110.41 62.5174C111.206 62.9389 111.831 63.5143 112.286 64.2357C112.732 64.9651 112.96 65.8647 112.96 66.9346C112.96 67.9072 112.692 68.8149 112.148 69.6578C111.604 70.5088 110.841 71.1329 109.858 71.5462C108.868 71.9596 107.642 72.1622 106.164 72.1622C104.021 72.1622 102.372 71.6678 101.228 70.679C100.075 69.6902 98.5 66 99 66L99.0162 66.0162ZM103.079 76.5307V75.1691C103.874 75.2502 104.605 75.2988 105.263 75.2988C105.92 75.2988 106.456 75.1772 106.789 74.926C107.041 74.7477 107.171 74.5045 107.171 74.2128C107.171 73.9453 107.049 73.7265 106.814 73.5319C106.57 73.3374 106.205 73.2402 105.701 73.2402C105.198 73.2402 104.703 73.3131 104.191 73.4671L104.491 72.3243C105.092 72.1217 105.742 72.0163 106.432 72.0163C107.398 72.0163 108.129 72.2271 108.632 72.6485C109.136 73.0781 109.379 73.5887 109.379 74.1965C109.379 74.8774 109.103 75.4204 108.543 75.8499C107.796 76.4254 106.724 76.7172 105.328 76.7172C104.337 76.7172 103.582 76.6523 103.071 76.5307H103.079ZM119.033 71.8786V54.9475H122.459V62.4607L129.377 54.9475H133.98L127.59 61.5448L134.321 71.8786H129.888L125.228 63.9358L122.451 66.7644V71.8786H119.033ZM154.521 71.8786H150.795L149.317 68.0287H142.538L141.141 71.8786H137.512L144.121 54.9475H147.742L154.538 71.8786H154.521ZM148.213 65.1839L145.875 58.9027L143.585 65.1839H148.213ZM159.499 71.8786V54.9475H162.835L169.777 66.2538V54.9475H172.96V71.8786H169.518L162.681 60.8397V71.8786H159.499ZM179.804 71.8786V55.0853H183.223V69.0256H191.74V71.8786H179.804ZM197.212 71.8786V54.9475H200.63V71.8786H197.212ZM214.928 65.654V62.8011H222.308V69.5443C221.594 70.2414 220.554 70.8492 219.19 71.376C217.826 71.9029 216.446 72.1622 215.058 72.1622C213.288 72.1622 211.737 71.7894 210.422 71.0519C209.106 70.3062 208.116 69.2445 207.45 67.8666C206.784 66.4807 206.46 64.9813 206.46 63.3603C206.46 61.6016 206.833 60.0292 207.572 58.6595C208.311 57.2898 209.399 56.2362 210.828 55.5067C211.916 54.9394 213.263 54.6638 214.887 54.6638C216.99 54.6638 218.638 55.1015 219.815 55.9849C221.001 56.8683 221.764 58.0841 222.105 59.6402L218.703 60.2724C218.46 59.4376 218.013 58.7811 217.355 58.3029C216.698 57.8247 215.878 57.5816 214.887 57.5816C213.393 57.5816 212.2 58.0517 211.315 58.9999C210.43 59.9482 209.991 61.3503 209.991 63.2144C209.991 65.2245 210.438 66.732 211.331 67.737C212.224 68.742 213.393 69.2445 214.847 69.2445C215.561 69.2445 216.284 69.0986 217.006 68.823C217.721 68.5393 218.346 68.1989 218.866 67.8018V65.654H214.944H214.928ZM217.096 50.6762H218.679C218.589 51.7217 218.224 52.5403 217.575 53.1401C216.925 53.7399 216.097 54.0316 215.066 54.0316C214.035 54.0316 213.207 53.7399 212.565 53.1401C211.924 52.5484 211.55 51.7217 211.461 50.6762H213.044C213.093 51.2273 213.288 51.6326 213.621 51.9163C213.953 52.1918 214.433 52.3377 215.066 52.3377C215.699 52.3377 216.178 52.1999 216.511 51.9163C216.844 51.6326 217.039 51.2192 217.087 50.6762H217.096ZM228.495 71.8786V54.9475H231.921V71.8786H228.495Z" fill="#252525" stroke="#252525" stroke-width="0.75"/>
</svg>